<?xml version="1.0" encoding="utf-8"?>
<!-- Generator: Adobe Illustrator 19.1.0, SVG Export Plug-In . SVG Version: 6.00 Build 0)  -->
<svg version="1.1" id="Layer_1" xmlns="http://www.w3.org/2000/svg" xmlns:xlink="http://www.w3.org/1999/xlink" x="0px" y="0px"
	 viewBox="-494 -94 750 750" style="enable-background:new -494 -94 750 750;" xml:space="preserve">
<style type="text/css">
	.st0{fill:#00A7DD;}
	.st1{opacity:0.4;fill:#0B49A3;}
	.st2{opacity:0.6;fill:#006ECD;}
	.st3{opacity:0.15;fill:url(#SVGID_1_);}
	.st4{opacity:0.26;fill:url(#SVGID_2_);}
</style>
<path class="st0" d="M-353.4,108.6l204.7-119.3c19-11.1,42.4-11.1,61.4,0l204.7,119.3c18.8,10.9,30.3,31,30.3,52.7v239.5
	c0,21.7-11.5,41.8-30.3,52.7L-87.3,572.7c-19,11.1-42.4,11.1-61.4,0l-204.7-119.3c-18.8-10.9-30.3-31-30.3-52.7V161.3
	C-383.7,139.6-372.1,119.5-353.4,108.6z"/>
<path class="st1" d="M-327.7,182.6v195.1c0,11.7,6.2,22.4,16.3,28.3l175,101.1c11.1,6.4,24.9,5.7,35.3-1.7L58.4,391.3
	c7.7-5.5,12.6-14.1,13.5-23.5l17.4-185.1c1.3-14.1-6.6-27.4-19.5-33L-105,74c-8.4-3.6-17.9-3.6-26.2,0.1l-177.1,78.7
	C-320.1,158-327.7,169.7-327.7,182.6z"/>
<path class="st2" d="M-286,192.5l-61.7,191c-5.6,17.4,4.1,36,21.6,41.3l198.2,59.7c6.3,1.9,13.1,1.8,19.3-0.2L83,423
	c17.4-5.6,26.8-24.3,20.9-41.6L40.3,194.2c-1.6-4.7-4.3-9-7.8-12.6L-97.9,51.3c-12.5-12.5-32.8-12.8-45.6-0.5l-134,128.2
	C-281.4,182.7-284.3,187.4-286,192.5z"/>
<radialGradient id="SVGID_1_" cx="-118.2306" cy="280.9999" r="280.9333" gradientUnits="userSpaceOnUse">
	<stop  offset="0.1149" style="stop-color:#FFFFFF;stop-opacity:0"/>
	<stop  offset="1" style="stop-color:#FFFFFF"/>
</radialGradient>
<path class="st3" d="M-116.6,284.3c0.1,0,0.8,0,1,0.1l255.9,145.4c0.7-1.3,1.3-2.6,2-3.9l-255.6-145.2c-0.4-0.2-0.4-0.6-0.4-0.7
	s0-0.5,0.4-0.7l254.8-144.8c-0.6-1.3-1.4-2.6-2.1-3.9l-255.1,144.9c-0.1,0.1-0.4,0.1-0.6,0.1c-0.2,0-0.7-0.1-0.9-0.2
	c-0.1-0.1-0.8-0.3-0.8-0.6V-19c-1.5,0-3,0.1-4,0.2v293.5c0,0.5-0.1,0.8-0.5,0.8c-0.1,0,0.2,0,0-0.1l-253.4-143.9
	c-0.7,1.3-1.4,2.6-2,3.9l253,143.8c0.4,0.2,0.4,0.6,0.4,0.7s-0.1,0.5-0.4,0.7l-253.8,144.2c0.6,1.3,1.2,2.6,1.9,3.9l254-144.4
	c0.1-0.1,0.2-0.1,0.3-0.1c0.4,0,0.5,0.3,0.5,0.8v295.7c1,0.1,2.5,0.2,4,0.2V285.1C-118,284.6-117,284.3-116.6,284.3z"/>
<linearGradient id="SVGID_2_" gradientUnits="userSpaceOnUse" x1="-25.6161" y1="407.9275" x2="-338.3121" y2="-21.6896">
	<stop  offset="0.1149" style="stop-color:#FFFFFF;stop-opacity:0"/>
	<stop  offset="1" style="stop-color:#FFFFFF"/>
</linearGradient>
<path class="st4" d="M-353.4,108.6l204.7-119.3c19-11.1,42.4-11.1,61.4,0l204.7,119.3c18.8,10.9,30.3,31,30.3,52.7v239.5
	c0,21.7-11.5,41.8-30.3,52.7L-87.3,572.7c-19,11.1-42.4,11.1-61.4,0l-204.7-119.3c-18.8-10.9-30.3-31-30.3-52.7V161.3
	C-383.7,139.6-372.1,119.5-353.4,108.6z"/>
</svg>
